<?xml version="1.0" standalone="no"?>
<!DOCTYPE svg PUBLIC "-//W3C//DTD SVG 20010904//EN"
 "http://www.w3.org/TR/2001/REC-SVG-20010904/DTD/svg10.dtd">
<svg version="1.0" xmlns="http://www.w3.org/2000/svg"
 width="400.000000pt" height="400.000000pt" viewBox="0 0 400.000000 400.000000"
 preserveAspectRatio="xMidYMid meet">

<g transform="translate(0.000000,400.000000) scale(0.100000,-0.100000)"
fill="#000000" stroke="none">
<path d="M820 3006 c0 -2 131 -210 292 -463 161 -252 298 -475 305 -496 9 -26
10 -49 4 -76 -5 -24 -123 -220 -305 -505 -163 -256 -296 -468 -296 -471 0 -3
105 -5 233 -5 223 0 234 1 283 24 28 13 63 39 77 57 13 19 152 234 307 479
156 245 284 446 285 448 1 1 133 -205 294 -457 177 -279 308 -474 331 -495 57
-51 91 -57 343 -54 l225 3 -299 470 c-167 263 -302 485 -305 503 -4 18 -4 48
-1 66 3 19 127 223 306 505 l300 472 -252 -3 -252 -3 -44 -30 c-38 -26 -86
-95 -336 -487 -160 -252 -295 -462 -301 -468 -7 -7 -99 129 -302 447 -160 252
-304 471 -319 485 -56 54 -82 58 -338 58 -129 0 -235 -2 -235 -4z"/>
</g>
</svg>
