<?xml version="1.0" standalone="no"?>
<!DOCTYPE svg PUBLIC "-//W3C//DTD SVG 20010904//EN"
 "http://www.w3.org/TR/2001/REC-SVG-20010904/DTD/svg10.dtd">
<svg version="1.0" xmlns="http://www.w3.org/2000/svg"
 width="1600.000000pt" height="1505.000000pt" viewBox="0 0 1600.000000 1505.000000"
 preserveAspectRatio="xMidYMid meet">

<g transform="translate(0.000000,1505.000000) scale(0.100000,-0.100000)"
fill="#000000" stroke="none">
<path d="M3170 11265 c-18 -22 -4 -48 48 -87 74 -57 216 -219 300 -343 32 -48
80 -115 154 -215 91 -124 165 -237 255 -390 47 -80 118 -199 158 -265 291
-483 373 -653 525 -1098 146 -424 230 -715 264 -909 8 -46 19 -103 25 -128 10
-45 35 -222 67 -465 34 -256 17 -701 -42 -1075 -53 -347 -157 -762 -252 -1010
-177 -462 -295 -707 -520 -1080 -167 -275 -500 -754 -663 -950 -101 -122 -216
-234 -311 -304 -76 -55 -90 -90 -43 -102 41 -10 93 2 231 55 71 26 145 52 164
55 100 21 378 101 630 181 74 24 173 55 220 70 47 15 95 33 107 41 24 15 68
32 193 74 142 48 272 96 330 123 30 15 116 51 190 80 175 71 237 101 520 249
488 257 695 418 1206 938 192 195 332 366 514 625 230 328 314 456 341 515 80
179 77 178 192 16 49 -68 96 -132 105 -142 25 -28 127 -163 217 -289 294 -410
399 -531 715 -826 503 -470 761 -659 1237 -907 261 -135 271 -140 828 -369
472 -195 737 -287 973 -338 195 -42 257 -60 295 -86 37 -27 151 -61 207 -63
40 -1 45 2 48 22 2 14 -2 22 -12 22 -12 0 -55 45 -131 139 -11 14 -36 43 -56
65 -113 129 -399 502 -450 587 -15 24 -47 73 -72 109 -328 476 -509 819 -730
1390 -151 387 -230 673 -341 1236 -108 541 -94 922 58 1604 8 36 22 99 32 140
28 125 144 521 189 645 82 227 182 491 207 544 81 175 232 479 269 543 52 90
252 390 344 518 234 325 390 516 528 652 122 119 131 141 60 146 -42 3 -235
-43 -308 -73 -53 -23 -144 -46 -200 -50 -58 -5 -256 -62 -465 -133 -80 -28
-224 -77 -320 -110 -370 -127 -749 -279 -970 -390 -130 -65 -465 -258 -585
-338 -202 -133 -404 -309 -732 -639 -166 -166 -268 -279 -369 -406 -189 -240
-326 -429 -430 -593 -48 -75 -102 -149 -120 -163 l-34 -26 -91 94 c-74 76
-236 260 -352 399 -31 37 -244 307 -312 397 -72 94 -283 305 -477 479 -168
149 -183 163 -308 274 -149 134 -257 210 -495 352 -339 201 -600 321 -1085
498 -140 51 -340 125 -445 165 -254 98 -279 105 -870 253 -341 85 -340 85
-355 67z m2280 -1834 c41 -21 143 -64 225 -94 405 -148 510 -202 910 -456 251
-160 384 -265 589 -467 51 -49 268 -284 314 -339 183 -218 248 -290 383 -427
84 -84 175 -180 203 -213 28 -33 53 -62 56 -65 3 -3 23 -27 45 -55 22 -27 78
-90 124 -140 46 -49 111 -130 144 -180 65 -96 147 -185 171 -185 8 0 18 6 23
13 4 6 8 363 8 792 l0 780 24 38 c13 21 40 49 60 62 20 13 54 37 76 53 281
200 341 242 650 450 166 112 469 266 685 349 36 14 90 36 121 49 62 26 89 24
89 -9 0 -11 -24 -70 -54 -131 -30 -61 -88 -201 -130 -311 -103 -275 -113 -306
-191 -604 -31 -117 -60 -234 -65 -260 -85 -464 -103 -641 -103 -1011 0 -588
82 -1082 275 -1670 112 -343 156 -447 245 -579 65 -97 0 -81 -307 74 -355 178
-564 306 -755 459 -55 44 -102 83 -105 86 -3 3 -21 18 -40 34 -46 37 -170 147
-245 217 -33 30 -84 77 -113 105 -61 55 -188 202 -445 509 -96 116 -219 257
-272 315 -188 203 -323 356 -410 465 -94 117 -176 214 -238 281 -21 23 -69 80
-106 127 -80 100 -89 110 -120 126 -17 10 -26 10 -35 1 -8 -8 -11 -199 -12
-703 -2 -849 -10 -1138 -33 -1187 -18 -38 -163 -170 -316 -287 -55 -42 -129
-99 -165 -127 -163 -127 -436 -285 -675 -391 -60 -26 -156 -70 -212 -97 -57
-26 -105 -48 -108 -48 -2 0 -37 -16 -76 -35 -77 -38 -99 -42 -99 -22 0 13 58
156 70 172 4 6 10 26 14 46 4 20 26 86 50 146 77 194 104 286 207 688 59 232
133 708 150 970 18 255 3 554 -41 860 -6 39 -14 106 -19 150 -34 299 -115 610
-254 975 -120 316 -171 440 -233 562 -57 113 -63 130 -52 153 6 14 18 25 27
25 8 0 49 -18 91 -39z"/>
</g>
</svg>
